<?xml version="1.0" encoding="UTF-8" standalone="no"?>
<!DOCTYPE svg PUBLIC "-//W3C//DTD SVG 1.1//EN" "http://www.w3.org/Graphics/SVG/1.1/DTD/svg11.dtd">
<svg xmlns="http://www.w3.org/2000/svg" version="1.1" viewBox="0.00 0.00 650.00 650.00">
<path fill="#ffaa33" d="
  M 310.24 74.39
  Q 310.07 73.44 309.10 73.48
  Q 291.06 74.33 271.24 78.26
  Q 270.03 78.50 270.03 79.74
  L 270.03 123.04
  A 4.17 4.12 23.2 0 0 271.20 125.92
  C 279.79 134.88 283.91 145.60 278.53 157.81
  C 267.90 181.93 233.01 177.96 227.70 152.39
  Q 226.92 148.63 227.28 145.35
  Q 228.88 130.77 240.90 123.37
  A 2.30 2.27 74.6 0 0 241.98 121.44
  Q 242.06 105.00 242.06 90.75
  Q 242.06 89.68 241.78 88.49
  Q 241.36 86.63 239.57 87.31
  Q 206.26 99.95 176.69 120.25
  C 170.35 124.60 164.13 129.46 158.02 134.17
  Q 156.78 135.12 155.70 136.39
  A 1.72 1.72 0.0 0 0 155.83 138.75
  Q 161.11 143.75 165.97 148.72
  Q 168.77 151.58 170.09 156.46
  C 172.32 164.72 166.62 172.90 159.13 175.81
  C 148.47 179.95 140.04 172.10 133.64 164.72
  A 1.40 1.40 0.0 0 0 131.83 164.46
  Q 130.25 165.46 128.94 166.93
  C 122.88 173.73 118.20 181.40 113.18 189.06
  C 100.92 207.75 91.48 228.48 85.30 249.21
  Q 82.59 258.31 79.54 272.02
  Q 76.80 284.28 75.86 297.41
  A 2.01 2.01 0.0 0 0 77.87 299.56
  Q 89.44 299.56 100.07 299.71
  C 109.12 299.84 115.19 308.55 113.83 317.25
  C 112.87 323.35 106.26 328.96 99.93 329.34
  C 91.67 329.84 83.26 329.37 75.02 329.65
  A 0.89 0.88 -89.3 0 0 74.17 330.48
  Q 73.70 338.85 74.98 347.87
  Q 75.07 348.49 75.70 348.53
  Q 88.02 349.19 101.28 348.89
  Q 102.38 348.87 103.24 349.48
  Q 103.66 349.78 103.77 350.27
  Q 104.19 352.02 104.19 353.83
  Q 104.21 365.57 104.29 377.02
  Q 104.30 378.62 102.70 378.63
  L 80.00 378.68
  A 1.31 1.30 84.7 0 0 78.72 380.23
  Q 81.38 394.09 87.16 409.80
  C 87.68 411.20 88.77 411.71 90.19 411.68
  C 100.87 411.52 111.72 410.45 116.62 422.06
  C 121.00 432.46 113.73 441.75 103.66 443.92
  A 1.42 1.41 69.2 0 0 102.73 446.00
  Q 109.21 457.43 117.27 468.75
  A 1.56 1.56 0.0 0 0 119.52 469.06
  Q 120.96 467.90 122.40 466.73
  C 136.34 455.44 157.14 470.42 149.98 487.04
  C 146.96 494.06 141.72 497.02 134.80 499.30
  A 1.48 1.47 -8.7 0 0 133.79 500.67
  Q 133.29 542.71 133.63 584.00
  Q 133.64 585.15 133.68 585.27
  Q 134.35 587.01 136.04 586.22
  C 150.21 579.59 164.05 572.91 178.57 566.23
  Q 191.91 560.09 205.30 553.34
  Q 206.58 552.70 208.57 552.43
  C 212.25 551.95 215.60 554.20 219.17 551.91
  C 224.87 548.26 230.52 544.96 237.56 544.97
  Q 325.45 545.05 409.62 544.97
  C 417.87 544.97 426.62 548.64 433.83 552.47
  C 436.00 553.62 441.60 550.66 443.78 549.41
  C 463.40 538.19 482.19 526.17 498.78 511.12
  C 502.11 508.09 505.72 505.41 508.91 502.16
  Q 509.53 501.53 509.99 500.80
  A 1.51 1.51 0.0 0 0 509.42 498.67
  C 501.62 494.43 495.66 486.72 497.38 477.74
  C 499.16 468.45 505.96 462.71 515.23 462.88
  Q 522.18 463.00 527.27 468.75
  C 528.49 470.12 530.64 473.73 532.57 470.88
  Q 540.70 458.83 548.70 446.80
  Q 549.48 445.62 549.94 444.08
  Q 550.16 443.33 549.38 443.27
  C 539.29 442.59 532.35 432.01 535.90 422.40
  Q 540.05 411.21 552.33 411.02
  Q 556.98 410.95 561.54 411.11
  Q 562.03 411.13 562.43 410.84
  Q 563.47 410.09 563.86 408.90
  Q 569.09 393.01 571.56 380.80
  Q 572.02 378.50 569.67 378.49
  L 548.95 378.38
  A 1.25 1.25 0.0 0 1 547.75 377.43
  Q 547.63 376.94 547.61 376.43
  Q 547.25 362.24 547.33 350.24
  Q 547.34 348.95 548.63 348.96
  Q 563.27 349.01 574.29 348.91
  Q 576.98 348.89 577.09 346.26
  Q 577.90 326.43 577.36 312.38
  Q 577.23 308.99 577.10 305.50
  C 576.91 300.40 576.14 295.52 575.49 290.50
  Q 572.86 270.26 566.33 250.59
  A 0.99 0.99 0.0 0 0 565.21 249.93
  Q 561.30 250.64 556.84 251.51
  C 547.70 253.30 538.50 248.86 535.39 239.69
  C 533.01 232.65 535.62 225.27 541.36 220.52
  C 544.54 217.89 548.46 217.53 552.35 216.84
  Q 553.82 216.57 553.09 215.26
  Q 545.82 202.15 536.87 188.51
  C 535.79 186.84 535.12 185.29 535.11 183.30
  Q 535.11 163.61 534.92 144.49
  Q 534.87 140.54 535.98 137.48
  C 537.35 133.72 541.61 131.45 545.27 132.32
  Q 548.47 133.08 550.92 135.44
  Q 557.53 141.79 566.56 153.92
  C 576.71 167.55 585.54 183.20 593.35 199.01
  Q 597.87 208.18 601.36 217.02
  Q 614.41 250.15 619.71 284.43
  Q 620.00 286.32 620.09 288.25
  C 620.18 290.22 621.13 291.96 621.01 293.91
  Q 620.76 297.88 621.52 301.51
  C 622.34 305.47 621.72 309.21 622.21 313.15
  Q 622.57 316.04 622.53 318.82
  C 622.43 324.88 622.74 330.97 622.17 336.97
  C 621.81 340.66 622.40 344.36 621.51 347.98
  Q 620.81 350.82 620.98 354.20
  C 621.13 356.99 619.92 359.48 620.03 362.13
  C 620.14 364.72 619.34 367.06 618.99 369.62
  C 617.46 380.89 614.84 391.50 612.21 402.35
  C 607.16 423.26 599.07 443.99 589.54 462.39
  Q 570.04 500.07 538.84 532.58
  Q 531.40 540.34 524.17 546.44
  Q 495.03 571.02 467.55 585.41
  Q 456.09 591.41 446.07 596.03
  Q 438.15 599.68 421.21 605.59
  C 405.33 611.13 387.97 615.32 372.72 617.72
  Q 367.99 618.47 362.51 619.31
  Q 358.96 619.85 355.99 620.01
  C 353.02 620.17 350.31 621.02 347.39 620.99
  Q 343.75 620.96 340.11 621.48
  C 334.09 622.34 327.92 622.00 321.76 622.01
  C 315.40 622.02 309.17 620.87 302.78 620.99
  C 300.11 621.04 297.72 620.18 295.09 620.07
  Q 293.40 620.00 291.74 619.79
  Q 250.00 614.39 211.47 597.47
  C 208.69 596.25 205.18 598.25 202.68 599.40
  Q 177.00 611.26 153.71 622.36
  C 137.48 630.10 121.38 637.20 105.57 645.46
  C 101.53 647.57 97.74 648.11 95.13 643.80
  Q 93.98 641.91 93.97 638.77
  C 93.89 619.87 94.64 600.36 94.43 583.00
  Q 94.02 548.96 93.98 513.62
  A 4.63 4.61 -63.5 0 0 93.06 510.85
  Q 88.70 504.93 84.15 498.72
  Q 72.16 482.40 65.12 469.28
  C 60.31 460.32 55.41 450.86 51.43 441.29
  Q 42.97 420.96 38.20 401.13
  Q 35.59 390.23 33.23 379.20
  C 32.89 377.58 33.07 375.97 32.54 374.39
  Q 31.98 372.68 31.99 370.80
  C 32.01 367.98 30.81 365.72 30.98 362.76
  C 31.12 360.35 29.82 358.34 30.00 355.91
  C 30.31 351.89 29.03 348.55 28.99 344.67
  Q 28.83 327.69 29.02 310.93
  Q 29.05 308.16 29.61 305.24
  C 30.26 301.83 29.56 298.31 30.27 294.94
  C 30.59 293.39 30.96 291.94 30.99 290.33
  C 31.07 287.11 31.67 283.85 32.16 280.57
  Q 35.73 256.44 45.24 228.72
  Q 52.16 208.57 61.09 191.65
  C 77.03 161.42 98.48 132.87 124.45 108.28
  Q 133.04 100.15 142.28 93.09
  Q 181.00 63.51 225.50 46.96
  C 238.91 41.97 253.25 38.51 267.14 35.23
  Q 276.40 33.05 285.64 32.04
  Q 288.22 31.76 290.44 31.34
  C 292.74 30.90 294.85 31.17 297.14 30.67
  Q 301.09 29.80 305.55 29.98
  C 308.36 30.09 311.06 29.23 313.93 29.17
  C 322.40 28.99 331.07 28.54 339.40 29.54
  C 344.41 30.14 349.39 29.82 354.34 30.68
  C 357.27 31.18 359.99 30.90 363.02 31.56
  Q 366.85 32.39 370.48 32.84
  Q 375.87 33.50 378.06 33.92
  Q 420.52 42.00 459.33 60.91
  Q 464.06 63.22 464.02 67.60
  Q 463.75 98.48 464.02 127.05
  C 464.09 134.80 462.76 140.98 454.87 144.01
  C 446.94 147.07 439.45 144.17 435.63 136.73
  Q 434.07 133.71 434.17 128.73
  Q 434.42 116.09 434.25 102.01
  Q 434.23 99.89 434.03 97.81
  Q 433.91 96.61 432.82 96.09
  Q 417.41 88.68 401.24 84.31
  A 1.78 1.78 0.0 0 0 398.99 86.03
  Q 398.98 127.82 398.99 165.90
  C 398.99 168.97 400.52 170.04 402.32 172.14
  Q 411.38 182.67 408.88 196.40
  Q 407.63 203.27 401.00 209.19
  Q 391.00 218.13 377.76 214.80
  Q 369.60 212.74 364.58 206.31
  Q 355.93 195.22 360.58 181.56
  C 362.61 175.59 365.91 172.00 370.58 168.19
  A 3.80 3.79 -19.6 0 0 371.98 165.25
  L 371.98 78.04
  A 1.27 1.26 -85.2 0 0 370.93 76.79
  Q 357.71 74.55 343.47 73.66
  Q 341.22 73.51 339.26 73.67
  A 0.69 0.68 2.1 0 0 338.63 74.25
  Q 338.38 76.02 338.40 77.80
  Q 338.55 94.71 338.29 104.09
  Q 338.13 110.12 332.12 110.22
  Q 323.64 110.36 315.72 110.16
  Q 311.23 110.05 310.70 105.78
  Q 310.17 101.47 310.26 97.23
  Q 310.50 85.90 310.40 76.05
  Q 310.39 75.21 310.24 74.39
  Z
  M 286.46 574.46
  Q 303.48 577.19 321.96 577.86
  C 344.73 578.67 368.44 575.20 389.80 569.01
  Q 392.50 568.23 389.69 568.24
  Q 339.12 568.38 293.27 568.34
  Q 281.17 568.34 267.87 568.60
  Q 267.25 568.61 266.74 568.97
  A 0.37 0.37 0.0 0 0 266.83 569.62
  Q 276.83 572.91 286.46 574.46
  Z"
/>
<path fill="#77b5c2" d="
  M 504.91 83.09
  C 510.23 85.90 510.19 91.98 510.70 97.26
  Q 511.04 100.86 511.04 104.21
  C 511.03 111.94 511.19 119.83 510.76 127.60
  Q 510.50 132.27 510.85 135.95
  C 511.64 144.35 509.83 153.22 499.55 153.65
  C 491.36 153.99 488.25 147.57 488.34 140.54
  Q 488.74 107.92 488.82 91.08
  Q 488.84 87.01 492.03 84.11
  C 495.78 80.70 500.68 80.84 504.91 83.09
  Z"
/>
<ellipse fill="#77b5c2" cx="0.00" cy="0.00" transform="translate(324.28,151.16) rotate(88.2)" rx="17.99" ry="17.57"/>
<circle fill="#77b5c2" cx="204.56" cy="194.92" r="22.38"/>
<circle fill="#77b5c2" cx="491.52" cy="211.09" r="28.47"/>
<path fill="#ffaa33" d="
  M 312.01 225.68
  C 311.82 224.97 311.78 224.34 311.39 223.67
  Q 305.96 214.29 311.29 206.13
  C 319.13 194.11 337.52 197.26 340.28 211.71
  Q 341.44 217.81 337.63 224.35
  Q 336.35 226.53 338.86 226.82
  Q 340.33 226.98 341.87 226.99
  Q 372.66 227.08 402.90 226.93
  Q 412.43 226.88 420.00 228.35
  Q 447.75 233.76 467.85 252.20
  C 485.57 268.46 498.28 291.18 498.65 315.31
  Q 498.69 317.87 501.18 318.44
  Q 503.75 319.04 506.03 319.63
  Q 518.61 322.89 526.33 333.05
  C 531.27 339.56 533.22 346.65 533.08 354.87
  Q 532.85 368.60 533.13 381.87
  Q 533.26 388.25 531.64 393.46
  C 527.38 407.11 515.05 417.18 500.67 418.17
  C 498.99 418.29 498.28 419.46 498.01 420.95
  C 496.38 429.84 494.02 438.08 489.76 446.26
  C 477.01 470.72 455.21 488.72 427.88 494.53
  Q 420.34 496.13 408.01 496.20
  Q 393.17 496.29 379.00 496.37
  Q 312.00 496.78 235.07 496.13
  C 217.38 495.99 200.10 488.88 186.34 477.91
  Q 158.12 455.41 152.35 419.68
  A 1.87 1.87 0.0 0 0 150.53 418.11
  C 147.90 418.07 145.22 418.01 142.72 417.17
  C 125.54 411.38 117.45 397.39 117.91 379.75
  Q 118.18 369.87 117.95 359.89
  Q 117.73 349.73 119.45 343.59
  Q 123.64 328.66 138.40 321.47
  C 142.30 319.56 146.79 318.98 151.05 317.91
  A 1.12 1.11 83.9 0 0 151.90 316.85
  Q 152.41 295.68 161.98 278.54
  C 176.73 252.13 200.41 234.27 230.54 228.39
  Q 238.40 226.86 249.14 226.92
  Q 277.14 227.10 311.06 226.93
  Q 312.35 226.93 312.01 225.68
  Z
  M 455.03 427.42
  Q 460.21 418.39 461.65 408.36
  Q 462.18 404.67 462.15 388.60
  Q 462.10 356.68 462.07 324.00
  Q 462.06 322.14 461.82 320.39
  C 459.10 300.98 447.53 284.79 431.06 274.91
  C 422.09 269.53 411.93 267.20 401.43 267.20
  Q 326.29 267.22 249.95 267.23
  C 239.89 267.23 230.64 268.57 221.93 273.29
  C 205.74 282.07 193.70 296.38 189.50 314.32
  Q 187.83 321.43 187.91 332.23
  Q 188.14 363.81 187.86 398.03
  C 187.66 421.35 199.43 440.63 220.01 451.85
  Q 229.71 457.14 242.65 457.11
  Q 321.07 456.90 409.39 457.07
  Q 415.64 457.09 420.46 455.80
  C 435.65 451.73 447.13 441.17 455.03 427.42
  Z
  M 498.74 347.44
  L 498.74 389.10
  A 0.01 0.01 0.0 0 0 498.75 389.11
  L 498.79 389.11
  A 13.01 9.23 90.0 0 0 508.02 376.10
  L 508.02 360.44
  A 13.01 9.23 -90.0 0 0 498.79 347.43
  L 498.75 347.43
  A 0.01 0.01 0.0 0 0 498.74 347.44
  Z
  M 143.59 368.13
  Q 142.71 372.07 143.72 376.20
  Q 142.96 379.81 144.97 382.90
  C 146.42 385.12 148.43 387.37 150.71 388.79
  A 0.73 0.73 0.0 0 0 151.83 388.23
  Q 152.39 381.96 151.44 376.72
  Q 150.89 373.73 151.20 370.46
  Q 152.09 360.85 151.66 350.10
  A 0.84 0.83 75.9 0 0 150.46 349.38
  Q 144.98 352.07 143.34 358.27
  Q 142.55 361.23 143.59 368.13
  Z"
/>
<path fill="#ffaa33" d="
  M 248.9906 410.9053
  A 47.74 47.26 99.5 0 1 210.2581 356.0199
  A 47.74 47.26 99.5 0 1 264.7494 316.7347
  A 47.74 47.26 99.5 0 1 303.4819 371.6201
  A 47.74 47.26 99.5 0 1 248.9906 410.9053
  Z
  M 277.51 363.74
  A 20.51 20.51 0.0 0 0 257.00 343.23
  A 20.51 20.51 0.0 0 0 236.49 363.74
  A 20.51 20.51 0.0 0 0 257.00 384.25
  A 20.51 20.51 0.0 0 0 277.51 363.74
  Z"
/>
<path fill="#ffaa33" d="
  M 399.0584 411.0145
  A 47.62 47.48 82.8 0 1 345.9844 369.7208
  A 47.62 47.48 82.8 0 1 387.1216 316.5255
  A 47.62 47.48 82.8 0 1 440.1956 357.8192
  A 47.62 47.48 82.8 0 1 399.0584 411.0145
  Z
  M 412.4240 371.4193
  A 20.82 20.46 22.0 0 0 400.7845 344.6498
  A 20.82 20.46 22.0 0 0 373.8160 355.8207
  A 20.82 20.46 22.0 0 0 385.4555 382.5902
  A 20.82 20.46 22.0 0 0 412.4240 371.4193
  Z"
/>
<path fill="#ffaa33" d="
  M 324.69 450.41
  C 308.48 450.12 295.84 443.41 286.12 430.31
  Q 285.64 429.67 286.44 429.72
  Q 290.03 429.95 293.47 429.56
  C 296.19 429.25 298.55 431.01 300.97 431.99
  Q 302.87 432.76 304.89 433.21
  C 315.52 435.57 326.30 435.63 336.94 435.14
  C 341.84 434.92 345.83 432.78 350.08 430.78
  A 10.37 10.33 -57.4 0 1 354.54 429.79
  L 363.19 429.83
  A 0.40 0.40 0.0 0 1 363.49 430.49
  Q 359.81 434.76 355.98 438.37
  Q 342.80 450.75 324.69 450.41
  Z"
/>
<path fill="#ffaa33" d="
  M 381.39 505.44
  C 387.14 505.43 393.05 509.37 394.20 514.58
  Q 395.31 519.68 391.88 523.48
  C 388.05 527.71 382.59 527.49 377.31 527.48
  Q 325.10 527.38 269.08 527.52
  C 262.48 527.53 257.24 525.10 256.08 517.86
  C 254.57 508.33 263.14 505.38 270.74 505.40
  Q 322.14 505.52 381.39 505.44
  Z"
/>
<path fill="#77b5c2" d="
  M 286.46 574.46
  Q 276.83 572.91 266.83 569.62
  A 0.37 0.37 0.0 0 1 266.74 568.97
  Q 267.25 568.61 267.87 568.60
  Q 281.17 568.34 293.27 568.34
  Q 339.12 568.38 389.69 568.24
  Q 392.50 568.23 389.80 569.01
  C 368.44 575.20 344.73 578.67 321.96 577.86
  Q 303.48 577.19 286.46 574.46
  Z"
/>
</svg>
